<svg xmlns="http://www.w3.org/2000/svg" xmlns:xlink="http://www.w3.org/1999/xlink" viewBox="0 0 500 452.69"><defs><style>.cls-1,.cls-105,.cls-38{fill:none;}.cls-2{isolation:isolate;}.cls-3{fill:#945915;}.cls-4{fill:#874c12;}.cls-5{fill:#ffcb24;}.cls-6{fill:#f9b800;}.cls-7{fill:#ffd357;}.cls-8{fill:#fbc006;}.cls-9{fill:#f7a500;}.cls-10{fill:#ffd96e;}.cls-11{fill:#c5a600;}.cls-12{fill:#ed8406;}.cls-13{fill:#205ce1;}.cls-14{fill:#0a2982;}.cls-15{fill:url(#linear-gradient);}.cls-16{fill:#347ee7;}.cls-17{fill:#206fce;}.cls-18{fill:#d0dcfe;}.cls-19{fill:#272c91;}.cls-20{clip-path:url(#clip-path);}.cls-21{fill:#fd9220;}.cls-22{fill:#9a98ed;}.cls-23,.cls-81,.cls-95,.cls-96{fill:#fff;}.cls-24{fill:url(#linear-gradient-2);}.cls-25{fill:#2875df;}.cls-26{fill:#75bcfc;}.cls-27{fill:#4594f4;}.cls-28{fill:#347ee8;}.cls-29{fill:#fcc106;}.cls-101,.cls-30{fill:#205ce2;}.cls-31{fill:url(#linear-gradient-3);}.cls-32,.cls-93{fill:#b4bbe1;}.cls-33{fill:#dae3f2;}.cls-34{fill:#ced2ef;}.cls-35{fill:#c5c8e8;}.cls-36{fill:#ff9906;}.cls-37{fill:#ef770a;}.cls-38{stroke:#fff;stroke-linecap:round;stroke-linejoin:round;stroke-width:3.16px;}.cls-39{fill:#266fc6;}.cls-40{fill:#4c96ed;}.cls-41{fill:url(#linear-gradient-4);}.cls-42{fill:#80b4ff;}.cls-43{fill:#4588ff;}.cls-44{fill:#f5f5f5;}.cls-45{fill:#e2e2e2;}.cls-46{fill:url(#linear-gradient-5);}.cls-47{fill:url(#linear-gradient-6);}.cls-48{fill:url(#linear-gradient-7);}.cls-49{fill:url(#linear-gradient-8);}.cls-50{fill:url(#linear-gradient-9);}.cls-51{fill:url(#linear-gradient-10);}.cls-52{fill:url(#linear-gradient-11);}.cls-53{fill:url(#linear-gradient-12);}.cls-54{fill:url(#linear-gradient-13);}.cls-55{fill:url(#linear-gradient-14);}.cls-56{fill:url(#linear-gradient-15);}.cls-57{fill:url(#linear-gradient-16);}.cls-58{fill:url(#linear-gradient-17);}.cls-59{fill:url(#linear-gradient-18);}.cls-60{fill:url(#linear-gradient-19);}.cls-61{fill:url(#linear-gradient-20);}.cls-62{fill:#6ce3ff;}.cls-63{fill:#898989;}.cls-63,.cls-99{opacity:0.5;}.cls-64{fill:#2a3049;}.cls-65{fill:#22293f;}.cls-66{fill:#3a3d51;}.cls-67{fill:#ffe1bd;}.cls-68{fill:#333647;}.cls-69{fill:#2d537a;}.cls-70{fill:#2eed89;}.cls-71{fill:#41f28d;}.cls-72{fill:#27e076;}.cls-73{fill:#f9a208;}.cls-74{fill:#eda38c;opacity:0.25;}.cls-74,.cls-93{mix-blend-mode:multiply;}.cls-75{fill:#4b9cb5;}.cls-76,.cls-77{fill:#48c8ef;}.cls-76{mix-blend-mode:luminosity;}.cls-78{fill:#85eeff;}.cls-79{fill:#b3e8f4;}.cls-80{fill:#5aafd1;}.cls-81{opacity:0.17;}.cls-82{fill:url(#linear-gradient-21);}.cls-83{fill:#3081e2;}.cls-84{fill:#595959;}.cls-85{fill:#242733;}.cls-86{fill:#2268bc;}.cls-87{fill:#f2ba88;}.cls-88{fill:#ffd1a4;}.cls-89{fill:#3a3a3a;}.cls-90{fill:#1c2235;}.cls-91{fill:#97a2ce;}.cls-92{fill:#8792b2;}.cls-93{opacity:0.55;}.cls-94,.cls-95{opacity:0.2;}.cls-94{mix-blend-mode:screen;fill:url(#linear-gradient-22);}.cls-96{opacity:0.6;}.cls-97{fill:#81c5e8;}.cls-98{fill:#cdd5f7;}.cls-100{fill:#2d2d2d;}.cls-101{opacity:0.75;}.cls-102{fill:#ccc;}.cls-103{fill:#165bd6;}.cls-104{fill:#713e23;}.cls-105{stroke:#381e1e;stroke-miterlimit:10;stroke-width:0.64px;}.cls-106{fill:#474747;}.cls-107{fill:#442312;}.cls-108{fill:#ffd04d;}</style><linearGradient id="linear-gradient" x1="421.01" y1="510.24" x2="478.98" y2="510.24" gradientUnits="userSpaceOnUse"><stop offset="0" stop-color="#b4bbe1" stop-opacity="0.1"/><stop offset="0.63" stop-color="#b4bbe1" stop-opacity="0.24"/><stop offset="1" stop-color="#b4bbe1" stop-opacity="0.3"/></linearGradient><clipPath id="clip-path" transform="translate(-290 -335.59)"><path class="cls-1" d="M450,434.39c-20.5,0-34.78-9.22-34.78-17.49S406,287.65,467.91,291.82c20.45,1.38,16.86,116.8,16.86,125.08S470.49,434.39,450,434.39Z"/></clipPath><linearGradient id="linear-gradient-2" x1="87.62" y1="217.73" x2="7.01" y2="264.26" xlink:href="#linear-gradient"/><linearGradient id="linear-gradient-3" x1="137.73" y1="226.71" x2="57.12" y2="273.25" xlink:href="#linear-gradient"/><linearGradient id="linear-gradient-4" x1="62.42" y1="325.56" x2="443.62" y2="325.56" xlink:href="#linear-gradient"/><linearGradient id="linear-gradient-5" x1="608.47" y1="610.84" x2="699.45" y2="610.84" gradientUnits="userSpaceOnUse"><stop offset="0" stop-color="#ced5ef"/><stop offset="0.37" stop-color="#d5ddf1"/><stop offset="0.87" stop-color="#dae3f2"/></linearGradient><linearGradient id="linear-gradient-6" x1="593.69" y1="619.33" x2="684.63" y2="619.33" xlink:href="#linear-gradient-5"/><linearGradient id="linear-gradient-7" x1="578.91" y1="627.81" x2="669.85" y2="627.81" xlink:href="#linear-gradient-5"/><linearGradient id="linear-gradient-8" x1="564.29" y1="636.22" x2="655.22" y2="636.22" xlink:href="#linear-gradient-5"/><linearGradient id="linear-gradient-9" x1="549.48" y1="644.73" x2="640.39" y2="644.73" xlink:href="#linear-gradient-5"/><linearGradient id="linear-gradient-10" x1="533.81" y1="653.72" x2="624.72" y2="653.72" xlink:href="#linear-gradient-5"/><linearGradient id="linear-gradient-11" x1="518.88" y1="662.3" x2="609.76" y2="662.3" xlink:href="#linear-gradient-5"/><linearGradient id="linear-gradient-12" x1="503.96" y1="670.85" x2="594.87" y2="670.85" xlink:href="#linear-gradient-5"/><linearGradient id="linear-gradient-13" x1="494.29" y1="563.97" x2="597.56" y2="563.97" xlink:href="#linear-gradient-5"/><linearGradient id="linear-gradient-14" x1="479.64" y1="572.39" x2="582.86" y2="572.39" xlink:href="#linear-gradient-5"/><linearGradient id="linear-gradient-15" x1="464.7" y1="580.95" x2="567.99" y2="580.95" xlink:href="#linear-gradient-5"/><linearGradient id="linear-gradient-16" x1="449.96" y1="589.43" x2="553.2" y2="589.43" xlink:href="#linear-gradient-5"/><linearGradient id="linear-gradient-17" x1="435.09" y1="597.96" x2="538.34" y2="597.96" xlink:href="#linear-gradient-5"/><linearGradient id="linear-gradient-18" x1="420.35" y1="606.44" x2="523.58" y2="606.44" xlink:href="#linear-gradient-5"/><linearGradient id="linear-gradient-19" x1="405.52" y1="614.95" x2="508.78" y2="614.95" xlink:href="#linear-gradient-5"/><linearGradient id="linear-gradient-20" x1="390.67" y1="623.47" x2="493.91" y2="623.47" xlink:href="#linear-gradient-5"/><linearGradient id="linear-gradient-21" x1="614.08" y1="741.22" x2="743.64" y2="741.22" xlink:href="#linear-gradient"/><linearGradient id="linear-gradient-22" x1="584.54" y1="609.04" x2="649.32" y2="609.04" xlink:href="#linear-gradient"/></defs><title>jumbotron</title><g class="cls-2"><g id="Layer_1" data-name="Layer 1"><path class="cls-3" d="M666.61,548.54V584c0,4.31-3.6,8.19-9.47,11.09-6.26,3.08-15.13,5-24.95,5-19,0-34.4-7.22-34.4-16.1V548.54Z" transform="translate(-290 -335.59)"/><path class="cls-4" d="M666.61,548.54V584c0,4.31-3.6,8.19-9.47,11.09V559.64l1.87-9.41,1.63-1.69Z" transform="translate(-290 -335.59)"/><path class="cls-5" d="M666.61,548.54c0,4.32-3.6,8.19-9.47,11.1-6.26,3.08-15.13,5-24.95,5-19,0-34.4-7.22-34.4-16.11a8.14,8.14,0,0,1,.4-2.48l3.88-12.31,7.69,2.59a61.31,61.31,0,0,1,22.43-3.9,64.25,64.25,0,0,1,19.23,2.76c1.11.34,2.18.72,3.2,1.14l7.87-2.07,3.7,11.79A7.51,7.51,0,0,1,666.61,548.54Z" transform="translate(-290 -335.59)"/><path class="cls-6" d="M666.61,548.54c0,4.32-3.6,8.19-9.47,11.1l-5.54-22.21s-.1-.94-.18-2.23c1.11.34,2.18.72,3.2,1.14l7.87-2.07,3.7,11.79A7.51,7.51,0,0,1,666.61,548.54Z" transform="translate(-290 -335.59)"/><ellipse class="cls-7" cx="342.19" cy="200.75" rx="30.62" ry="14.33"/><path class="cls-8" d="M632.07,535h0a8.68,8.68,0,0,1-8.68-8.68V490h17.36v36.32A8.68,8.68,0,0,1,632.07,535Z" transform="translate(-290 -335.59)"/><path class="cls-9" d="M640.76,490v36.32a8.68,8.68,0,0,1-8,8.65,8.47,8.47,0,0,0,2.86-6.4V492.28H623.38V490Z" transform="translate(-290 -335.59)"/><path class="cls-5" d="M683.76,402.17V461.3a51.57,51.57,0,0,1-51.57,51.58,49.23,49.23,0,0,1-8.47-.72A51,51,0,0,1,599.26,501a51.54,51.54,0,0,1-18.64-39.71V402.17Z" transform="translate(-290 -335.59)"/><path class="cls-10" d="M623.72,512.16A51,51,0,0,1,599.26,501a51.28,51.28,0,0,1-11.39-32.33V409.55h12v59.13A51.45,51.45,0,0,0,623.72,512.16Z" transform="translate(-290 -335.59)"/><path class="cls-6" d="M683.76,402.17V461.3a51.56,51.56,0,0,1-41.17,50.52,51.43,51.43,0,0,0,21.67-42V410.68H580.62v-8.51Z" transform="translate(-290 -335.59)"/><ellipse class="cls-10" cx="342.19" cy="66.59" rx="51.58" ry="16.19"/><ellipse class="cls-11" cx="342.13" cy="66.59" rx="47.78" ry="14.33"/><path class="cls-5" d="M632.19,569.52c.44,0,.87,0,1.31,0v16.68c-.44,0-.87,0-1.31,0-13.28,0-24.81-3.51-30.54-8.68V560.83C607.38,566,618.91,569.52,632.19,569.52Z" transform="translate(-290 -335.59)"/><path class="cls-12" d="M550.74,467c0,1.19-2.13,2.17-4.78,2.19s-4.82-.92-4.83-2.11,2.13-2.17,4.79-2.19S550.73,465.83,550.74,467Z" transform="translate(-290 -335.59)"/><rect class="cls-12" x="541.05" y="447.28" width="9.61" height="19.78" transform="translate(-294.03 -330.74) rotate(-0.51)"/><path class="cls-8" d="M550.57,447.24c0,1.18-2.13,2.17-4.79,2.19s-4.81-.92-4.82-2.11,2.13-2.17,4.78-2.19S550.56,446.05,550.57,447.24Z" transform="translate(-290 -335.59)"/><path class="cls-13" d="M566.06,411l12.09,21.47c2.73,4.84,29.22,16.08,62.59-9.43,15.16-11.37,21-30.53,17.66-36.45s-14.22-25.25-14.22-25.25Z" transform="translate(-290 -335.59)"/><polygon class="cls-14" points="247.97 80.59 338.07 83.75 380.6 7.13 290.22 3.97 247.97 80.59"/><polygon class="cls-14" points="378.37 3.16 380.6 7.13 375.63 9.93 372.36 8.57 378.37 3.16"/><polygon class="cls-14" points="245.73 76.63 247.97 80.59 254.77 74.15 245.73 76.63"/><polygon class="cls-13" points="245.73 76.63 335.84 79.78 378.37 3.16 287.99 0 245.73 76.63"/><path class="cls-8" d="M545.86,448.1a.89.89,0,0,1-.89-.9l0-35a.89.89,0,0,1,.38-.73l55.29-39.31a.9.9,0,1,1,1,1.46l-54.92,39,0,34.57A.9.9,0,0,1,545.86,448.1Z" transform="translate(-290 -335.59)"/><path class="cls-14" d="M606.18,373.06a5.16,5.16,0,1,1-4.6-5.67A5.15,5.15,0,0,1,606.18,373.06Z" transform="translate(-290 -335.59)"/><path class="cls-15" d="M479,510.24c0,9.09-13,16.45-29,16.45s-29-7.36-29-16.45,13-16.45,29-16.45S479,501.16,479,510.24Z" transform="translate(-290 -335.59)"/><path class="cls-16" d="M410,416.9l11,87.23h.11c1.17,8.48,13.64,15.16,28.88,15.16,16,0,29-7.36,29-16.45l11-85.93Z" transform="translate(-290 -335.59)"/><path class="cls-17" d="M490,416.91l-11,85.93c0,6.66-7,12.38-17,15a10.7,10.7,0,0,0,2.4-6.56l11-85.93H411.1l-1.05-8.41Z" transform="translate(-290 -335.59)"/><ellipse class="cls-18" cx="160" cy="81.31" rx="39.96" ry="22.68"/><ellipse class="cls-19" cx="160" cy="81.31" rx="34.78" ry="17.5"/><ellipse class="cls-19" cx="160" cy="81.31" rx="34.78" ry="17.5"/><g class="cls-20"><rect class="cls-21" x="464.51" y="393.76" width="2.64" height="15.33" rx="0.5" transform="translate(-205.03 -416.96) rotate(10.98)"/><path class="cls-22" d="M461.18,474.58c-.23,1.2-2.34,1.38-4.72.4s-4.13-2.75-3.9-4,2.34-1.39,4.72-.4S461.41,473.38,461.18,474.58Z" transform="translate(-290 -335.59)"/><polygon class="cls-8" points="180.48 40.95 162.56 135.44 171.18 138.99 189.1 44.51 180.48 40.95"/><path class="cls-13" d="M479.1,380.1c-.23,1.2-2.35,1.38-4.73.4s-4.12-2.75-3.89-4,2.34-1.38,4.72-.4S479.32,378.89,479.1,380.1Z" transform="translate(-290 -335.59)"/><path class="cls-13" d="M457.18,356.07l-.07,3,0,1.23-.1,4.14,0,1.22-.1,4.14,0,1.23-.09,4,0,1.23-.11,4.06,0,1.23-.09,4.14,0,1.2-.1,4.14,0,1.23-.08,4.07,0,1.2-.11,4.09v1.23l-.11,4.09,0,1.2-.09,4.17,0,1.22-.1,4.14,0,1.21-.09,4.11,0,1.2-.11,4.17,0,1.2-.09,4.09,0,1.23-.11,4.14,0,1.2-.42,16.92c-.09,3.88-2.87,6.57-5.58,5.42l-9-3.85c-1.85-.82-3.08-3.21-3-5.85l3-99.18c.11-3.51,2.45-6.11,5-5.53l8.41,1.9C455.72,350.56,457.25,353.11,457.18,356.07Z" transform="translate(-290 -335.59)"/><path class="cls-23" d="M457.11,359.08l0,1.23a.11.11,0,0,1-.07,0l-3.81-1a.69.69,0,0,1-.36-.73c.06-.31.29-.55.53-.45Z" transform="translate(-290 -335.59)"/><path class="cls-23" d="M457,364.45l0,1.22a.16.16,0,0,1-.09,0l-3.81-1a.59.59,0,0,1-.36-.7c.06-.31.29-.55.51-.48Z" transform="translate(-290 -335.59)"/><path class="cls-23" d="M456.85,369.81l0,1.23-.09,0-3.81-1a.6.6,0,0,1-.36-.7c.06-.34.27-.56.51-.48Z" transform="translate(-290 -335.59)"/><path class="cls-23" d="M456.72,375.06l0,1.23s-.06,0-.07,0l-3.82-1a.57.57,0,0,1-.35-.7c.05-.33.26-.55.51-.48Z" transform="translate(-290 -335.59)"/><path class="cls-23" d="M456.58,380.35l0,1.23a.11.11,0,0,1-.07,0l-3.82-1a.61.61,0,0,1-.35-.7c.05-.31.28-.56.52-.48Z" transform="translate(-290 -335.59)"/><path class="cls-23" d="M456.46,385.72l0,1.2h-.08l-3.82-1a.65.65,0,0,1-.35-.72c.05-.31.28-.55.52-.46Z" transform="translate(-290 -335.59)"/><path class="cls-23" d="M456.32,391.06l0,1.23a.06.06,0,0,1,0,0l-3.82-1c-.23-.05-.38-.37-.35-.7s.28-.56.53-.48Z" transform="translate(-290 -335.59)"/><path class="cls-23" d="M456.2,396.36l0,1.2h-.09l-3.82-1a.62.62,0,0,1-.35-.7c.05-.34.28-.58.51-.48Z" transform="translate(-290 -335.59)"/><path class="cls-23" d="M456.05,401.65v1.23a.08.08,0,0,1-.07,0l-3.82-1a.56.56,0,0,1-.35-.69c.05-.34.26-.56.51-.49Z" transform="translate(-290 -335.59)"/><path class="cls-23" d="M455.93,407l0,1.2h-.07l-3.82-1a.6.6,0,0,1-.35-.7c0-.33.28-.57.51-.48Z" transform="translate(-290 -335.59)"/><path class="cls-23" d="M455.81,412.34l0,1.22a.16.16,0,0,1-.09,0l-3.81-1a.61.61,0,0,1-.35-.7c.05-.31.26-.55.52-.48Z" transform="translate(-290 -335.59)"/><path class="cls-23" d="M455.67,417.7l0,1.21h0l-.07,0-3.81-1a.6.6,0,0,1-.36-.7c0-.33.27-.55.51-.48Z" transform="translate(-290 -335.59)"/><path class="cls-23" d="M455.54,423l0,1.2h0a.12.12,0,0,1-.08,0l-3.82-1c-.25-.05-.39-.36-.35-.7s.28-.55.51-.48Z" transform="translate(-290 -335.59)"/><path class="cls-23" d="M455.4,428.39l0,1.2h-.05l-3.82-1a.64.64,0,0,1-.35-.7c.05-.33.26-.55.52-.48Z" transform="translate(-290 -335.59)"/><path class="cls-23" d="M455.28,433.68l0,1.23a.07.07,0,0,1-.06,0l-3.82-1a.6.6,0,0,1-.35-.7c0-.32.27-.56.51-.48Z" transform="translate(-290 -335.59)"/><path class="cls-23" d="M455.14,439.05l0,1.2H455l-3.81-1a.61.61,0,0,1-.36-.7c0-.33.29-.55.51-.48Z" transform="translate(-290 -335.59)"/></g><polygon class="cls-24" points="0 252.12 27.98 268.24 94.63 229.87 66.86 213.66 0 252.12"/><path class="cls-25" d="M359.13,434.88l-62.27,35.86L318,482.9l44.65-36.37V436.9A2.33,2.33,0,0,0,359.13,434.88Z" transform="translate(-290 -335.59)"/><polygon class="cls-26" points="6.85 138.49 68.77 102.82 91.06 115.68 29.16 151.34 6.85 138.49"/><path class="cls-27" d="M382.75,447.41a2.56,2.56,0,0,0-2.7-.26L318,482.9l-21.12-12.16,62.27-35.86a2.27,2.27,0,0,1,2-.13v0s-2.17-1.06-3-1.57a2.52,2.52,0,0,0-2.61-.19L290,470.71V580.78l24.54-14.13V595l67-38.59a4,4,0,0,0,2-3.5L385.65,449S383.7,448,382.75,447.41Z" transform="translate(-290 -335.59)"/><polygon class="cls-28" points="27.98 151.26 0 135.15 0 245.22 27.98 261.34 27.98 151.26"/><polygon class="cls-29" points="24.18 157.21 2.61 144.78 2.61 153.2 24.18 165.63 24.18 157.21"/><polygon class="cls-29" points="24.18 168.32 2.61 155.9 2.61 158.81 24.18 171.24 24.18 168.32"/><polygon class="cls-29" points="24.18 173.75 2.61 161.32 2.61 164.23 24.18 176.66 24.18 173.75"/><polygon class="cls-29" points="24.18 247.02 2.61 234.59 2.61 237.51 24.18 249.93 24.18 247.02"/><path class="cls-30" d="M383.5,449.12,318,486.86V596.93l67-38.59a4,4,0,0,0,2-3.51V451.15A2.33,2.33,0,0,0,383.5,449.12Z" transform="translate(-290 -335.59)"/><polygon class="cls-31" points="50.11 261.1 78.09 277.22 144.74 238.85 116.97 222.64 50.11 261.1"/><path class="cls-32" d="M409.24,443,347,478.83,368.09,491l44.65-36.37V445A2.34,2.34,0,0,0,409.24,443Z" transform="translate(-290 -335.59)"/><polygon class="cls-33" points="56.96 146.57 118.88 110.91 141.17 123.77 79.27 159.42 56.96 146.57"/><path class="cls-34" d="M432.86,455.5a2.56,2.56,0,0,0-2.7-.26L368.09,491,347,478.83,409.24,443a2.3,2.3,0,0,1,2-.13h0s-2.17-1.07-3-1.57a2.52,2.52,0,0,0-2.61-.19L340.11,478.8V588.87l24.54-14.14v28.32l67-38.59a4.06,4.06,0,0,0,2-3.51l2.09-103.83S433.81,456.09,432.86,455.5Z" transform="translate(-290 -335.59)"/><polygon class="cls-35" points="78.09 159.35 50.11 143.23 50.11 253.3 78.09 269.42 78.09 159.35"/><polygon class="cls-23" points="74.29 165.3 52.72 152.87 52.72 161.29 74.29 173.72 74.29 165.3"/><polygon class="cls-23" points="74.29 176.41 52.72 163.98 52.72 166.9 74.29 179.32 74.29 176.41"/><polygon class="cls-23" points="74.29 181.83 52.72 169.41 52.72 172.32 74.29 184.75 74.29 181.83"/><polygon class="cls-23" points="74.29 255.1 52.72 242.68 52.72 245.59 74.29 258.02 74.29 255.1"/><path class="cls-32" d="M433.61,457.21l-65.52,37.73V605l67-38.58a4,4,0,0,0,2-3.51V459.23A2.33,2.33,0,0,0,433.61,457.21Z" transform="translate(-290 -335.59)"/><polygon class="cls-36" points="479.4 119.03 479.4 168.45 476.06 170.26 430.02 135.64 422.83 90.19 426.17 88.37 479.4 119.03"/><polygon class="cls-37" points="479.4 119.03 479.4 168.45 476.06 170.26 430.02 135.64 476.06 120.85 479.4 119.03"/><polygon class="cls-29" points="476.06 120.85 476.06 170.27 422.83 139.6 422.83 90.19 476.06 120.85"/><polygon class="cls-23" points="429.45 106.46 429.45 110.58 448.68 132.15 467.96 132.61 467.96 128.51 429.45 106.46"/><polygon class="cls-23" points="448.68 134.54 429.45 112.98 429.45 134.04 467.96 156.09 467.96 135 448.68 134.54"/><polygon class="cls-36" points="266.33 157.95 266.33 192.75 262.62 194.8 230.2 170.42 225.14 138.41 228.84 136.35 266.33 157.95"/><polygon class="cls-37" points="266.33 157.95 266.33 192.75 262.62 194.8 230.2 170.42 262.62 160 266.33 157.95"/><polygon class="cls-29" points="262.62 160 262.62 194.8 225.14 173.21 225.14 138.41 262.62 160"/><polyline class="cls-38" points="234.56 162.88 239.63 172.93 254.25 162.23"/><polygon class="cls-28" points="500 241.39 500 276.19 496.3 278.25 463.87 253.87 458.81 221.85 462.51 219.8 500 241.39"/><polygon class="cls-39" points="500 241.39 500 276.19 496.3 278.25 463.87 253.87 496.3 243.45 500 241.39"/><polygon class="cls-40" points="496.3 243.45 496.3 278.25 458.81 256.65 458.81 221.85 496.3 243.45"/><path class="cls-23" d="M766.7,575.17l-2.82,4.06a.62.62,0,0,1-.77.2L757,576.72a.61.61,0,0,0-.76.91l4.88,7.63a.69.69,0,0,1,.1.48l-1.26,6.6a.68.68,0,0,0,.62.8l6.55.41a.66.66,0,0,1,.47.23l6,6.66a.62.62,0,0,0,1.1-.48l-1-6.75a.62.62,0,0,1,.38-.67l4.63-1.79a.63.63,0,0,0,.1-1.11l-7.37-5.41a.62.62,0,0,1-.24-.31l-3.27-8.56A.65.65,0,0,0,766.7,575.17Z" transform="translate(-290 -335.59)"/><polygon class="cls-41" points="62.42 300.01 298 435.24 443.62 351.11 208.03 215.87 62.42 300.01"/><polygon class="cls-42" points="208.03 202.94 443.62 338.18 443.62 343.44 298 427.57 62.42 292.34 62.42 287.08 208.03 202.94"/><polygon class="cls-43" points="62.42 287.08 298 422.31 443.62 338.18 208.03 202.94 62.42 287.08"/><path class="cls-23" d="M499.83,523.55s42.93,5.07,114.84,68.54c0,0,62.15,11.9,110.59,60.9v18h0L587.87,749.84,362.44,620.4v-18Z" transform="translate(-290 -335.59)"/><path class="cls-44" d="M362.44,602.44s42.92,5.07,114.83,68.54c0,0,62.15,11.9,110.6,60.9v18L362.44,620.4Z" transform="translate(-290 -335.59)"/><polygon class="cls-45" points="435.26 317.4 297.87 396.29 297.87 414.25 435.26 335.36 435.26 317.4"/><path class="cls-44" d="M715.72,618.67,578.31,697.55a161.55,161.55,0,0,0-21.12-11.46,170,170,0,0,0-16.34-6.38c-35-11.65-63.58-8.73-63.58-8.73l137.4-78.89S666.17,586.82,715.72,618.67Z" transform="translate(-290 -335.59)"/><path class="cls-46" d="M699.45,622.11,696.19,624c-36.48-21.3-73.15-23.28-87.72-23.1l5.59-3.21C631.8,598.16,665.88,602,699.45,622.11Z" transform="translate(-290 -335.59)"/><path class="cls-47" d="M684.63,630.62l-3.24,1.86c-36.46-21.3-73.13-23.27-87.7-23.09l5.58-3.22C617,606.65,651.06,610.48,684.63,630.62Z" transform="translate(-290 -335.59)"/><path class="cls-48" d="M669.85,639.11,666.61,641c-36.43-21.28-73.11-23.29-87.7-23.09l5.61-3.23C602.25,615.12,636.31,619,669.85,639.11Z" transform="translate(-290 -335.59)"/><path class="cls-49" d="M655.22,647.51,652,649.38c-36.41-21.28-73.07-23.29-87.67-23.11l5.57-3.21C587.61,623.53,621.68,627.38,655.22,647.51Z" transform="translate(-290 -335.59)"/><path class="cls-50" d="M640.39,656l-3.25,1.88c-36.42-21.29-73-23.29-87.66-23.11l5.57-3.21C572.78,632,606.83,635.89,640.39,656Z" transform="translate(-290 -335.59)"/><path class="cls-51" d="M624.72,665l-3.24,1.87c-36.41-21.3-73.08-23.3-87.67-23.11l5.61-3.22C557.18,641,591.21,644.9,624.72,665Z" transform="translate(-290 -335.59)"/><path class="cls-52" d="M609.76,673.6l-3.24,1.87c-36.39-21.27-73-23.3-87.64-23.12l5.58-3.21C542.22,649.63,576.25,653.49,609.76,673.6Z" transform="translate(-290 -335.59)"/><path class="cls-53" d="M594.87,682.16,591.62,684c-36.41-21.27-73.06-23.27-87.66-23.09l5.6-3.23C527.33,658.18,561.36,662,594.87,682.16Z" transform="translate(-290 -335.59)"/><path class="cls-54" d="M494.29,534.58c14.79,4.29,50.1,18.17,100.21,61.11l3.06-1.75c-48.18-41.49-82.52-56.43-99.21-61.7Z" transform="translate(-290 -335.59)"/><path class="cls-55" d="M479.64,543c14.86,4.33,50.15,18.28,100.16,61.14l3.06-1.75c-48.09-41.44-82.41-56.41-99.16-61.73h0Z" transform="translate(-290 -335.59)"/><path class="cls-56" d="M464.7,551.57c14.77,4.28,50.08,18.15,100.23,61.11l3.06-1.76c-48.21-41.51-82.56-56.42-99.23-61.69Z" transform="translate(-290 -335.59)"/><path class="cls-57" d="M450,560c14.82,4.33,50.12,18.24,100.18,61.13l3.06-1.75C505.06,577.94,470.73,563,454,557.7Z" transform="translate(-290 -335.59)"/><path class="cls-58" d="M435.09,568.57c14.82,4.31,50.12,18.21,100.2,61.12l3.05-1.75c-48.15-41.47-82.47-56.42-99.19-61.71Z" transform="translate(-290 -335.59)"/><path class="cls-59" d="M420.35,577c14.84,4.34,50.13,18.26,100.17,61.15l3.06-1.76C475.47,595,441.14,580,424.4,574.71Z" transform="translate(-290 -335.59)"/><path class="cls-60" d="M405.52,585.54c14.82,4.31,50.12,18.22,100.2,61.14l3.06-1.76c-48.14-41.47-82.48-56.41-99.2-61.7Z" transform="translate(-290 -335.59)"/><path class="cls-61" d="M390.67,594.07c14.84,4.33,50.13,18.25,100.18,61.14l3.06-1.76C445.79,612,411.46,597,394.73,591.74Z" transform="translate(-290 -335.59)"/><polygon class="cls-62" points="208.1 276.39 213.61 276.95 214.24 281.63 297.87 233.61 291.14 228.71 208.1 276.39"/><path class="cls-63" d="M447.9,617c-2.08,2.33-17.16,9.6-25.63,12.15l-2.92-1.73,27-14.33S450,614.69,447.9,617Z" transform="translate(-290 -335.59)"/><path class="cls-64" d="M420.12,515.84s-3.12,3.76-1.16,10c1.21,3.84,2.3,4.19,2.59,6.2s-2.59,5.81-.11,11.56c1.27,2.94,9.07-.48,9.07-.48l4-5.25-4-10.89Z" transform="translate(-290 -335.59)"/><path class="cls-65" d="M430.34,535l.45,5.33s-9.62,3.74-9.83,2,2-2.78,2.43-4a3.45,3.45,0,0,0,0-2.22,10.78,10.78,0,0,1-1-5.18" transform="translate(-290 -335.59)"/><path class="cls-66" d="M380.58,674.93a.84.84,0,0,1,.23.66c-.06.37-.57,1-1.64,1.57a14,14,0,0,0-3,1.73c-1.11.92-3.21,2.88-4.4,3.85a8.5,8.5,0,0,1-3.77,1.63,27.13,27.13,0,0,1-5.08.44,3.2,3.2,0,0,1-2.91-1.66,6.88,6.88,0,0,1-.1-1.78" transform="translate(-290 -335.59)"/><polygon class="cls-67" points="82.73 328 82.73 334.55 82.73 337.4 88.25 337.4 90.05 328 82.73 328"/><path class="cls-66" d="M424.48,602.61s-5.81,15.94-17.54,20c-1.92.67-3.78,1.2-5.54,1.63a52.55,52.55,0,0,1-15.82,1.53c1.06,11.78-4.21,33.85-5.51,39.06a2.06,2.06,0,0,1-1.59,1.52,3,3,0,0,1-.43.08,9.57,9.57,0,0,1-3.84-.23,2.29,2.29,0,0,1-1.7-2.12c-.32-8-1.77-45.89,2.56-48.89,10.7-7.44,36.94-16.28,42.29-18.29a2.37,2.37,0,0,0,1.36-1.33l1.76-4.27Z" transform="translate(-290 -335.59)"/><path class="cls-68" d="M404.53,615.23l-3.13,9a52.55,52.55,0,0,1-15.82,1.53c1.06,11.78-4.21,33.85-5.51,39.06a2.06,2.06,0,0,1-1.59,1.52,3,3,0,0,1-.43.08h0c5-17.57,4.2-45,4.2-45C393,622.19,404.2,615.43,404.53,615.23Z" transform="translate(-290 -335.59)"/><path class="cls-67" d="M410,668.29l2.5,5.32s7.55,6.82,5.87-1.58l-3.08-9.69" transform="translate(-290 -335.59)"/><path class="cls-66" d="M449.93,605c-.46,4.93-2,10.42-8.62,14.18a144.07,144.07,0,0,1-33.16,13.1q.81,2,1.82,4.45c2.63,6.54,5.69,23.32,6.78,28.83a3,3,0,0,1-.58,2.44,3.78,3.78,0,0,1-.39.41,6,6,0,0,1-3.76,1.7,2.68,2.68,0,0,1-2.34-1.52c-3-6-17.66-34.61-18.9-40.72a5.58,5.58,0,0,1,0-2.7,1.94,1.94,0,0,1,.31-.73c6.62-7,29.06-17.08,29.06-17.08l.36-16,24.64,2.74,3.83.43S450.31,600.92,449.93,605Z" transform="translate(-290 -335.59)"/><path class="cls-68" d="M449.93,605c-.46,4.93-2,10.42-8.62,14.18a144.07,144.07,0,0,1-33.16,13.1q.81,2,1.82,4.45c2.63,6.54,5.69,23.32,6.78,28.83a3,3,0,0,1-.58,2.44c-1.55-5.41-5-16.65-6.15-22.83-1.36-7.18-7.28-15.72-7.28-15.72s7.23-1.93,17.55-5.35,21.45-8.54,24.7-14.69,0-15.2,0-15.2l.13-.16,3.83.43S450.31,600.92,449.93,605Z" transform="translate(-290 -335.59)"/><path class="cls-8" d="M380.42,675.6c-.94.86-1.55,1-4.06,2.41s-5,4.76-7,5.38-6.06,1.38-8,.45a2.44,2.44,0,0,1-1.51-2.13,3.78,3.78,0,0,1,.41-1.86c.55-1.09,2.23-1.92,4.26-2.86s4.17-3.4,5.58-4.72a13.63,13.63,0,0,0,2.33-3.54c.25-.36,2.3.09,3,1.18.34.56.24.78.12,1a.54.54,0,0,0,0,.63.61.61,0,0,0,.46.25,3,3,0,0,0,3-2.71C380.93,669.9,381.36,674.74,380.42,675.6Z" transform="translate(-290 -335.59)"/><path class="cls-66" d="M421.52,676a2.45,2.45,0,0,1,.68,1.31,8,8,0,0,1-1.93,3.43s-.22.34-.51.89a34.55,34.55,0,0,1-2.86,5c-1.21,1.54-4,2.45-5.25,2.81a7,7,0,0,1-4.73-.13,3,3,0,0,1-2.21-2.31l5.64-3.12" transform="translate(-290 -335.59)"/><path class="cls-8" d="M421.88,676.75a7.62,7.62,0,0,1-2.07,3.74c-1.6,3.15-3.18,5.79-4.05,6.44a18.57,18.57,0,0,1-5.06,2.16c-2.53.73-6-.66-6.15-2.77a1.61,1.61,0,0,1,0-.31c.17-2.27,3.34-4,4.65-4.65s2.08-5.27,2.35-7.14a1.21,1.21,0,0,1,1.2-1.1,3.71,3.71,0,0,1,2.15.72c.5.43.37.67.37,1.09a.49.49,0,0,0,.52.5.84.84,0,0,0,.37-.07c.45-.2,2.52-2,2.25-3.34a.83.83,0,0,1,.93.37C419.74,673,421.74,675.28,421.88,676.75Z" transform="translate(-290 -335.59)"/><path class="cls-69" d="M422.82,605.22" transform="translate(-290 -335.59)"/><path class="cls-70" d="M427.93,554.43s-3.07,9.3-5.61,15.57c-.7,1.74-1.36,3.25-1.9,4.26q-.27.5-.6,1c-4.2,6.88-15.22,17-19.5,21,0,0,0,0,0,0a2.45,2.45,0,0,1-1.37.62,2.55,2.55,0,0,1-2.4-1.13,1.74,1.74,0,0,1-.27-.77,1.6,1.6,0,0,1,.18-.94v0l0-.06c1.49-2.25,9.85-14.89,13.15-19.75,1.58-2.31,2.75-3.84,3.56-4.82.33-3.58,1.41-14.55,3.05-21a2.76,2.76,0,0,1,.08-.27h0a14.41,14.41,0,0,1,2.93-5.7,11,11,0,0,1,1.55-1.52l.31-.19a13.39,13.39,0,0,1,3.9-1.33,5.13,5.13,0,0,1,2.57.82,5.94,5.94,0,0,1,2.49,4.45C430.34,546.72,429.16,550.54,427.93,554.43Z" transform="translate(-290 -335.59)"/><path class="cls-71" d="M416.34,548.22c-.13.91-2,14.7-2.06,21.56,0,0-16.46,22.52-18,25.26a1.6,1.6,0,0,1,.18-.94v0l0-.06c1.49-2.25,9.85-14.89,13.15-19.75,1.58-2.31,2.75-3.84,3.56-4.82.33-3.58,1.41-14.55,3.05-21A2.76,2.76,0,0,1,416.34,548.22Z" transform="translate(-290 -335.59)"/><path class="cls-72" d="M422.32,570c-.7,1.74-1.36,3.25-1.9,4.26-3.66,6.85-15.6,17.77-20.1,22,0,0,0,0,0,0a2.45,2.45,0,0,1-1.37.62c2.23-2.35,15-15.75,16.62-17.93,1.8-2.4,2.73-4.19,2.48-5.68s-.64-2-1.9-4.7c-1.85-4-1.69-5.64-1.69-5.64s4.83,1.54,5.25,1.58C419.92,564.59,421.18,567.37,422.32,570Z" transform="translate(-290 -335.59)"/><path class="cls-72" d="M418.68,546.38s.3,4-1.07,6.79a26.61,26.61,0,0,0-3.16,9.35l5.67-6.66Z" transform="translate(-290 -335.59)"/><path class="cls-8" d="M427.93,554.43s-3.07,9.3-5.61,15.57c-.7,1.74-1.36,3.25-1.9,4.26q-.27.5-.6,1c-4.2,6.88-15.22,17-19.5,21,0,0,0,0,0,0a2.45,2.45,0,0,1-1.37.62,2.55,2.55,0,0,1-2.4-1.13,1.74,1.74,0,0,1-.27-.77,1.6,1.6,0,0,1,.18-.94v0l0-.06c1.49-2.25,9.85-14.89,13.15-19.75,1.58-2.31,2.75-3.84,3.56-4.82.33-3.58,1.41-14.55,3.05-21a2.76,2.76,0,0,1,.08-.27h0a14.41,14.41,0,0,1,2.93-5.7,11,11,0,0,1,1.55-1.52l.31-.19a13.39,13.39,0,0,1,3.9-1.33,5.13,5.13,0,0,1,2.57.82,5.94,5.94,0,0,1,2.49,4.45C430.34,546.72,429.16,550.54,427.93,554.43Z" transform="translate(-290 -335.59)"/><path class="cls-8" d="M449.05,592.7c.32.72.54,1.23-.1,1.81,0,0-2.2,2.75-9.1,3h-.29a14.31,14.31,0,0,1-1.84-.14c-5.05-.67-13.43-3.61-16.37-5.39l-.09-.05,0,0c-.37-.23-1.43-.94-1.31-1.38a20.43,20.43,0,0,0,.59-4,71.83,71.83,0,0,0-.69-11.24c0-.16-.07-.32-.1-.46s-.12-.45-.19-.67a38.91,38.91,0,0,0-3.54-7l0,0a10.63,10.63,0,0,1-1.48-3.48c-.53-4.78,4.21-8.09,4-12.27-.2-3.25-.72-6.57.81-8.88a4.9,4.9,0,0,1,1.55-1.52l.31-.19a13.39,13.39,0,0,1,3.9-1.33,31.87,31.87,0,0,1,13.8.66s14,5.74,15.4,10.93-3,14.86-4.9,19.71q-.31.83-.6,1.8c-1.49,5.08-2.27,12.77-1.41,15.91C447.32,588.49,448.55,591.6,449.05,592.7Z" transform="translate(-290 -335.59)"/><path class="cls-73" d="M449,594.51s-2.2,2.75-9.1,3h-.29a14.31,14.31,0,0,1-1.84-.14,5.89,5.89,0,0,0,3.2-1.24c1.59-1.59.17-9.62-.24-12-.37-2.18.33-6.73-1.21-7.24l-.36-2.45s-1.25,1.54-4.12,1a45,45,0,0,1-6.23-1.71c-1.62-.47-3.49-.69-6.79-1.49-3.61-.88-4.05-1.7-4.05-1.7-.64-1.17-1.34-2.32-1.93-3.37l0,0a8.14,8.14,0,0,0,4.15,2.62c2.46.51,13,3.24,15.27,2.9s4.73-3.59,4.73-3.59l8.61,3.5c-1.49,5.08-2.27,12.77-1.41,15.91,0,0,1.23,3.11,1.73,4.21C449.37,593.42,449.59,593.93,449,594.51Z" transform="translate(-290 -335.59)"/><path class="cls-67" d="M442.74,545.27c-.23,2.05-8,6.94-14,9,0,0-2.55-6.86-1.94-10.86a2.33,2.33,0,0,1,1.18-1.71,3.46,3.46,0,0,0,.87-.63,3.53,3.53,0,0,0,1.09-2.59c0-.5,0-1-.06-1.4a21.86,21.86,0,0,0-.28-2.2l11.22-6.16s-1.49,10.45-.21,12.07C440.6,540.78,443,543.34,442.74,545.27Z" transform="translate(-290 -335.59)"/><path class="cls-74" d="M439.92,539.34l-2.53-2.86-.86-.49a8.25,8.25,0,0,0,2.32-3l-9,4c0,.43.05.9.06,1.4a3.53,3.53,0,0,1-1.09,2.59,2.62,2.62,0,0,0,1.79-1.26c.46-.72,2.92-2.08,5-3.09a6,6,0,0,0,2.29,4.54,9.43,9.43,0,0,0,5.78,1.39Z" transform="translate(-290 -335.59)"/><path class="cls-67" d="M420.79,516.6a35.4,35.4,0,0,0,.77,13.49c1.88,6.32,4.44,8.12,5.89,8.2S437.53,537.1,440,531a26.89,26.89,0,0,0,.85-16.57c-1.11-3.58-7.35-6.66-11.7-5.89S421.22,512.41,420.79,516.6Z" transform="translate(-290 -335.59)"/><path class="cls-75" d="M436.14,610.17v1.53l-33.65-13.37L381.55,607l.23-.43h-2.89v1.26a.4.4,0,0,0,.26.38l35.4,14.08a1,1,0,0,0,.76,0l22.26-9.26a.5.5,0,0,0,.31-.46v-1.49Z" transform="translate(-290 -335.59)"/><path class="cls-76" d="M437,612.68c0,.21-.12.38-.26.38s-.26-.17-.26-.38.12-.39.26-.39S437,612.46,437,612.68Z" transform="translate(-290 -335.59)"/><ellipse class="cls-76" cx="145.67" cy="277.49" rx="0.26" ry="0.39"/><path class="cls-76" d="M434.82,613.5c0,.21-.12.39-.26.39s-.26-.18-.26-.39.11-.38.26-.38S434.82,613.29,434.82,613.5Z" transform="translate(-290 -335.59)"/><path class="cls-77" d="M402.49,596.79l-23.6,9.82,36,14.33,22.71-9.45a.39.39,0,0,0,0-.73Z" transform="translate(-290 -335.59)"/><path class="cls-62" d="M402.34,598.54,382,607a.19.19,0,0,0,0,.36l31.38,12.48a.17.17,0,0,0,.14,0l20.38-8.48a.19.19,0,0,0,0-.36l-31.39-12.48A.17.17,0,0,0,402.34,598.54Z" transform="translate(-290 -335.59)"/><path class="cls-78" d="M411.05,601.28l-6.13,2.55a.12.12,0,0,0,0,.21l9.68,3.85a1,1,0,0,0,.73,0l6.09-2.54a.13.13,0,0,0,0-.24l-9.64-3.83A.93.93,0,0,0,411.05,601.28Z" transform="translate(-290 -335.59)"/><path class="cls-79" d="M414.24,621.53a.52.52,0,0,0,.3-.17s0-.05.06-.07l.33-.35-9.76-24.43a1.16,1.16,0,0,0-.67-.67l-35.16-14a.25.25,0,0,0-.28.07l-.6.62a0,0,0,0,0,0,0l1.19.89,9.25,23.14,34.68,13.79-.13.1.77,1Z" transform="translate(-290 -335.59)"/><path class="cls-80" d="M414.24,621.53l-9.62-24.08a1.8,1.8,0,0,0-1-1l-35-13.9a.17.17,0,0,0-.17,0,0,0,0,0,0,0,0,.11.11,0,0,0,0,.14l9.71,24.34a.66.66,0,0,0,.33.33l35.45,14.09h0l.08,0a.42.42,0,0,0,.2,0Z" transform="translate(-290 -335.59)"/><path class="cls-81" d="M391.87,603c-.35,1.06-1.91,1.48-3.49,1s-2.57-1.8-2.22-2.86,1.91-1.47,3.49-1S392.22,601.92,391.87,603Z" transform="translate(-290 -335.59)"/><path class="cls-67" d="M421.93,601.66l-1.33,1.68a4.67,4.67,0,0,1-2.87,1.28l-2,.44a.34.34,0,0,0-.17.05h0a.7.7,0,0,0-.17.14l-2.19,1.87h0a1.06,1.06,0,0,0-.22.29s-1.15,1.92-1.41,2.58c-.06.16.36.33.7.11a18.83,18.83,0,0,0,1.65-2.08s-1.05,2.31-1.33,3.09c-.06.18.33.31.79,0A14.83,14.83,0,0,0,415,608.4s-.64,1.85-.77,2.44c0,.17.19.3.68.11s1.35-2.25,1.35-2.25l.67-.57-.58.78s-.6,1.28-.73,1.66c-.08.22.42.25.9-.24s1.28-1.63,1.65-1.68a6.67,6.67,0,0,0,2.15.23c1.37-.11,2.34-2.52,2.34-2.52l3.37-3.37Z" transform="translate(-290 -335.59)"/><path class="cls-70" d="M452.64,562.55s-5,15.16-7.52,19.83c-3.65,6.85-15.59,17.77-20.09,22l0,0a2.4,2.4,0,0,1-1.62.63,2.5,2.5,0,0,1-2.14-1.14,1.92,1.92,0,0,1-.27-.67h0a1.7,1.7,0,0,1,.17-1l0,0,0-.06c1.49-2.25,9.85-14.89,13.15-19.76,1.57-2.31,2.74-3.83,3.56-4.82a180.39,180.39,0,0,1,2.7-19.48v0c.11-.5.22-1,.34-1.43a13.62,13.62,0,0,1,5-7.81,5.58,5.58,0,0,1,6.37-.37,5.36,5.36,0,0,1,1,.86h0a6.41,6.41,0,0,1,1.49,3.58C455.05,554.84,453.87,558.66,452.64,562.55Z" transform="translate(-290 -335.59)"/><path class="cls-72" d="M452.64,562.55s-5,15.16-7.52,19.83c-3.65,6.85-15.59,17.77-20.09,22l0,0a2.4,2.4,0,0,1-1.62.63c2.28-2.27,10.72-10.69,12.68-12.75,2.28-2.4,7-8.2,8.77-12.13s6.09-17.32,7.75-22.72c1.59-5.24.77-8,.71-8.17a6.41,6.41,0,0,1,1.49,3.58C455.05,554.84,453.87,558.66,452.64,562.55Z" transform="translate(-290 -335.59)"/><path class="cls-71" d="M440.62,558.08c-.09.94-1.55,16.24-1.51,19.72,0,0-16.53,22.77-18.13,25.45a1.7,1.7,0,0,1,.17-1l0,0,0-.06c1.49-2.25,9.85-14.89,13.15-19.76,1.57-2.31,2.74-3.83,3.56-4.82A180.39,180.39,0,0,1,440.62,558.08Z" transform="translate(-290 -335.59)"/><path class="cls-8" d="M452.64,562.55s-5,15.16-7.52,19.83c-3.65,6.85-15.59,17.77-20.09,22l0,0a2.4,2.4,0,0,1-1.62.63,2.5,2.5,0,0,1-2.14-1.14,1.92,1.92,0,0,1-.27-.67h0a1.7,1.7,0,0,1,.17-1l0,0,0-.06c1.49-2.25,9.85-14.89,13.15-19.76,1.57-2.31,2.74-3.83,3.56-4.82a180.39,180.39,0,0,1,2.7-19.48v0c.11-.5.22-1,.34-1.43a13.62,13.62,0,0,1,5-7.81,5.58,5.58,0,0,1,6.37-.37,5.36,5.36,0,0,1,1,.86h0a6.41,6.41,0,0,1,1.49,3.58C455.05,554.84,453.87,558.66,452.64,562.55Z" transform="translate(-290 -335.59)"/><path class="cls-64" d="M446.15,543.75c-2.23-1.21-4.78-1-7.1-2.55,0,0,0,0,0,0-.17-.1-.33-.22-.5-.34l-.48-.41c-2.94-2.7-1.47-8.92-1.47-12.09v-.2c-.09-4.44.11-7.77-5.46-6.58a15.35,15.35,0,0,1-6.39,0,5.64,5.64,0,0,1-4-8c.08-.15.17-.29.26-.45,3.83-6.1,12.51-5.4,17.13-2.64,3.89,2.34,5.33,5.61,5.25,11.52-.07,5,1.88,4.82,2.78,9.36a10.36,10.36,0,0,1,.18,1.07c.06.42.1.84.14,1.26A44.24,44.24,0,0,1,446.15,543.75Z" transform="translate(-290 -335.59)"/><path class="cls-65" d="M446.15,543.75c-2.23-1.21-4.78-1-7.1-2.55,0,0,0,0,0,0-.17-.1-.33-.22-.5-.34l-.48-.41c-2.94-2.7-1.47-8.92-1.47-12.09l2.53-1.65a10.88,10.88,0,0,1,0,3.22c-.28,1.51-.77,1.58-1.28,3.31s-.33,5,1.4,6.27,4.45,1,5.25,1.43c0,0,1.8-3.48,1.65-9.57a10.36,10.36,0,0,1,.18,1.07c.06.42.1.84.14,1.26A44.24,44.24,0,0,1,446.15,543.75Z" transform="translate(-290 -335.59)"/><path class="cls-67" d="M435.89,526a2.5,2.5,0,0,1,2.27-1.23c1.38.22,1.22,2.27.82,4a2.61,2.61,0,0,1-2.83,2" transform="translate(-290 -335.59)"/><path class="cls-73" d="M380.42,675.6c-.94.86-1.55,1-4.06,2.41s-5,4.76-7,5.38-6.06,1.38-8,.45a2.44,2.44,0,0,1-1.51-2.13c.9,1,1.69,1.53,4.6,1.43s5.82-1,7.61-3.26,3-3.33,4.9-4.1,2.84-1.74,2.57-2.64-1-1.48-2.37-1.15-1.59-.46-1.59-.46a.61.61,0,0,0,.46.25,3,3,0,0,0,3-2.71C380.93,669.9,381.36,674.74,380.42,675.6Z" transform="translate(-290 -335.59)"/><path class="cls-73" d="M421.88,676.75a7.62,7.62,0,0,1-2.07,3.74c-1.6,3.15-3.18,5.79-4.05,6.44a18.57,18.57,0,0,1-5.06,2.16c-2.53.73-6-.66-6.15-2.77,2.78,2.44,8.9.13,9.93-.9s1.3-2.58,2.84-4.19,3.3-3.51,2.44-5c-.6-1.06-2.53-.84-3.07-.64a.88.88,0,0,1-.9-.15.84.84,0,0,0,.37-.07c.45-.2,2.52-2,2.25-3.34a.83.83,0,0,1,.93.37C419.74,673,421.74,675.28,421.88,676.75Z" transform="translate(-290 -335.59)"/><line class="cls-1" x1="124.24" y1="285.94" x2="124.21" y2="285.94"/><path class="cls-82" d="M735.12,714,623.38,778.45l-9.3-5.32,111.74-64.5L743.25,704a.31.31,0,0,1,.31.51Z" transform="translate(-290 -335.59)"/><path class="cls-32" d="M726,698.06l15.08-3.59a.55.55,0,0,1,.53.91l-10.25,11.28Z" transform="translate(-290 -335.59)"/><path class="cls-43" d="M741.62,695.37l-4,4.44a5.7,5.7,0,0,0-.55-1.9,6,6,0,0,0-1-1.51,4.76,4.76,0,0,0-.62-.57l5.68-1.34A.53.53,0,0,1,741.62,695.37Z" transform="translate(-290 -335.59)"/><path class="cls-43" d="M621.24,759.2l1.43,2.52,3.67,6.47,103.89-60.64h0a3.25,3.25,0,0,0,.62-.39,3.66,3.66,0,0,0,1.19-1.64,5.76,5.76,0,0,0-.3-4.46,6.23,6.23,0,0,0-1-1.51h0a4.64,4.64,0,0,0-3.86-1.68,3.18,3.18,0,0,0-1.12.31l-.18.09-.23.15-.08.05-.06,0Z" transform="translate(-290 -335.59)"/><path class="cls-42" d="M621.24,759.2l1.43,2.52,3.6-1.09,104.47-61.07h0a4.64,4.64,0,0,0-3.86-1.68,3.18,3.18,0,0,0-1.12.31l-.18.09-.23.15-.08.05-.06,0Z" transform="translate(-290 -335.59)"/><path class="cls-83" d="M619.72,765.68c1.24,2.59,3.92,3.89,6,2.9h0a3,3,0,0,0,.62-.39,3.66,3.66,0,0,0,1.19-1.64,5.76,5.76,0,0,0-.3-4.46,5.15,5.15,0,0,0-4.88-3.2,3.07,3.07,0,0,0-1.11.31,1.11,1.11,0,0,0-.19.09l-.23.15-.08,0C619.06,760.68,618.59,763.31,619.72,765.68Z" transform="translate(-290 -335.59)"/><path class="cls-84" d="M696,780.42c-2.77,1.69-4,1-7.38,2.27s-9.78,5.27-12.47,5.56-6-1.18-7-3.48,1.72-4,4.69-5.58a120,120,0,0,0,10-6.72l9.67-.91c-.58.61-1,1.08-1,1.08l-.93,5.18,4.5.91A1.32,1.32,0,0,1,696,780.42Z" transform="translate(-290 -335.59)"/><path class="cls-28" d="M683.8,771.56a119.83,119.83,0,0,1-10,6.71c-3,1.54-5.65,3.29-4.69,5.59s4.31,3.76,7,3.47,9.11-4.31,12.47-5.56,4.6-.57,7.39-2.26c1-.62,1.41-5.39-.6-9" transform="translate(-290 -335.59)"/><path class="cls-84" d="M727.8,747a1.1,1.1,0,0,1-.08.43c-.47,1.16-1.24,1.81-3.63,3.25S720,756,718,757.82s-4.57,3.5-7,3.6-5.37-1.54-5.65-3.36.86-2.39,2-3.17a44.19,44.19,0,0,0,5.36-4.89c.68-.86,2.21-3.45,2.21-3.45l8.06-6.62a8.88,8.88,0,0,1,2.83,2.35,1.5,1.5,0,0,0-.76,0,20.94,20.94,0,0,0-.9,2.14,5.39,5.39,0,0,0,.84,1.11c.22.07,2,.19,2,.19A2.14,2.14,0,0,1,727.8,747Z" transform="translate(-290 -335.59)"/><path class="cls-28" d="M714.66,745.83s-1.53,2.59-2.2,3.45a44.36,44.36,0,0,1-5.37,4.9c-1.15.76-2.3,1.34-2,3.16s3.26,3.45,5.66,3.36,5-1.78,7-3.6,3.67-5.7,6.07-7.14,3.16-2.09,3.64-3.25-1-5.58-4.7-7.5" transform="translate(-290 -335.59)"/><path class="cls-66" d="M723.6,739c-2,7.46-10,7.09-10,7.09s-6.76-7.11-13.78-15.3a152.7,152.7,0,0,1-13-16.79,31.23,31.23,0,0,1-1.65-3,26.46,26.46,0,0,1-1.64-5c-3.69-14.67-4.87-45.92-4.87-45.92l20.9,10.36-.19,32.86s2,1.85,4.46,4.69a60.61,60.61,0,0,1,4.65,6.08C712.54,720.17,723.6,739,723.6,739Z" transform="translate(-290 -335.59)"/><path class="cls-85" d="M723.6,739c-2,7.46-10,7.09-10,7.09s-6.76-7.11-13.78-15.3l1.23-13.51,2-9.21h.79a60.61,60.61,0,0,1,4.65,6.08C712.54,720.17,723.6,739,723.6,739Z" transform="translate(-290 -335.59)"/><path class="cls-68" d="M694.79,680.53s-2.91,14.81-3.34,14.9-3.19,12.45-4.57,18.53a31.23,31.23,0,0,1-1.65-3,26.46,26.46,0,0,1-1.64-5C684.91,696,689,673.62,689,673.62h3.76Z" transform="translate(-290 -335.59)"/><path class="cls-66" d="M717.27,674.84c-.91,4.54-7.07,21-11.55,33.27a88.1,88.1,0,0,0-5.13,23.94c-1,14.32-3.17,35.9-3.9,40.07a10,10,0,0,1-1.9,1.14c-2.52,1.2-7.17,2.35-11.71-2.09,0,0-.15-45.84,0-53.9S691,676.42,691,676.42s-11.89-3.83-12.27-16.3l32.9,4.26,5.65.73S718.61,668.08,717.27,674.84Z" transform="translate(-290 -335.59)"/><path class="cls-68" d="M717.27,674.84c-.91,4.54-7.07,21-11.55,33.27a88.1,88.1,0,0,0-5.13,23.94c-1,14.32-3.17,35.9-3.9,40.07a10,10,0,0,1-1.9,1.14c.75-11.25,3.07-46.19,3.5-52.69.51-7.78,5.87-20.54,9.13-31.85a79,79,0,0,0,2.68-22.82l1.52-1.52,5.65.73S718.61,668.08,717.27,674.84Z" transform="translate(-290 -335.59)"/><path class="cls-86" d="M719,665.17a14.53,14.53,0,0,1,.37,1.83.89.89,0,0,1-.37.87,25.87,25.87,0,0,1-5.06,2.41,26.2,26.2,0,0,1-10.77,1.14c-1.32-.12-14.26-3-22-7.87a5.79,5.79,0,0,1-2.58-5.85v-.05C678.85,656.12,719,665.17,719,665.17Z" transform="translate(-290 -335.59)"/><path class="cls-28" d="M725,616c-1,4.06-2.19,8.07-3.42,12.08-.58,1.89-1.27,3.76-2,5.63-2.48,6.69-5.08,13.4-3.59,20.71.59,2.86,2.07,6.45,1.74,9.39-.21,1.75-.45,3.25-3.54,5.22a8.86,8.86,0,0,1-2,1l-.42.13-.19.06a15.57,15.57,0,0,1-2,.43,19.93,19.93,0,0,1-4.88.2,21.69,21.69,0,0,1-2.27-.3c-4.69-.89-13.48-3-21.06-7.73,0,0,0,0-.06,0-2.36-1.41-3.63-4.85-2.9-9.58.37-2.39.93-5.69,1.42-8.38a48.28,48.28,0,0,0,.7-9.6c-.05-1.44-.09-2.89-.13-4.32-1.38-8.89-6.38-26.93-3.94-31.79,1.55-3.08,4.35-8.3,4.35-8.3a64.61,64.61,0,0,1,9.27-1.91c.45,0,.89,0,1.34,0,2.56.5,5.26.92,7.91,1.49,1.72.35,3.42.77,5.09,1.28.5.15,1,.31,1.46.48s.8.29,1.19.45c2.43.94,4.13,1.72,5.48,2.39a38.2,38.2,0,0,1,4,2.31l.18.12a41.58,41.58,0,0,1,5.2,4c1.78,1.58,3.34,3.3,3.86,4.76a11.85,11.85,0,0,1,.43,1.84,1,1,0,0,1,0,.17C726.52,610.63,725.64,613.48,725,616Z" transform="translate(-290 -335.59)"/><path class="cls-39" d="M726.24,607.87l-2.8.35c-.75-5.69-17.23-14.31-17.23-14.31l-.29-1.87c.41.15.8.29,1.19.45,2.43.94,4.13,1.72,5.48,2.39a38.2,38.2,0,0,1,4,2.31l.18.12a41.58,41.58,0,0,1,5.2,4c1.78,1.58,3.34,3.3,3.86,4.76A11.85,11.85,0,0,1,726.24,607.87Z" transform="translate(-290 -335.59)"/><path class="cls-87" d="M705.81,582.94v7.13s-7.3,5.27-11.18,4.51c-1.67-.33-2.54-2.47-2.19-5.48l3.52-.71Z" transform="translate(-290 -335.59)"/><path class="cls-23" d="M693.76,594.16,689.61,599s-.16-5.86,2.62-8.84,2.81-.4,2.81-.4S692.48,592.76,693.76,594.16Z" transform="translate(-290 -335.59)"/><path class="cls-88" d="M685.65,573.45a41.37,41.37,0,0,0,.64,11.43c1.24,5.46,1.61,6.69,3.81,7.66s4.19,1.08,7.88-1.3a18.66,18.66,0,0,0,5.73-6.25s.53.34,1.85-1.15c2.07-2.33,2.46-3.5,2.46-6.67a22.12,22.12,0,0,0-3.25-11.29c-2.47-4.14-10-2.82-13.48-1.06S686.31,569.91,685.65,573.45Z" transform="translate(-290 -335.59)"/><path class="cls-64" d="M682.66,573.72c3.78,6.68,13.21,2.28,13.21,2.28.7,2.91,2.73,3.17,3.7,3.7s1.18,3.35,1.18,3.35h.89a20.42,20.42,0,0,1,.48-4.23,2.5,2.5,0,0,1,4.41-.43c1.19,1.85-.18,3.92-1,5.45a7,7,0,0,0,.24,3.45,11.5,11.5,0,0,0,2.4-4.32,30.08,30.08,0,0,0,0-15.51,7.22,7.22,0,0,0-.77-1.87c-2.9-4.89-11.14-5.84-14.38-4.74-2.79.95-9.7,4.1-11,8.57A5.46,5.46,0,0,0,682.66,573.72Z" transform="translate(-290 -335.59)"/><path class="cls-89" d="M682.38,707c0,.35.11.7.16,1C682.49,707.63,682.43,707.29,682.38,707Z" transform="translate(-290 -335.59)"/><path class="cls-23" d="M705.8,589.35a6.81,6.81,0,0,1,.8,1.47,16.2,16.2,0,0,1,.5,1.66,19.29,19.29,0,0,1-11.18,8.78l-.93-6.63S702.17,593.65,705.8,589.35Z" transform="translate(-290 -335.59)"/><path class="cls-90" d="M682.66,573.72c3.78,6.68,13.21,2.28,13.21,2.28.7,2.91,2.73,3.17,3.7,3.7s1.18,3.35,1.18,3.35h.89a20.42,20.42,0,0,1,.48-4.23,2.5,2.5,0,0,1,4.41-.43c1.19,1.85-.18,3.92-1,5.45a7,7,0,0,0,.24,3.45,11.5,11.5,0,0,0,2.4-4.32,30.08,30.08,0,0,0,0-15.51,7.22,7.22,0,0,0-.77-1.87,46.77,46.77,0,0,1-10.91,7c-5.93,2.49-11,2.08-12.52.85a4.9,4.9,0,0,1-2-4.07A5.46,5.46,0,0,0,682.66,573.72Z" transform="translate(-290 -335.59)"/><path class="cls-88" d="M714.94,675.16a27.89,27.89,0,0,1-.55,4.37,6.41,6.41,0,0,1-.71,1.28c-.42.71-2.29,4.05-2.56,6a17,17,0,0,0,1,5.58.58.58,0,0,0,.17.21.47.47,0,0,0,.29,0c1.18-.18,1.25-1.63,1.15-2.55-.05-.51-.06-2.12.27-2.08,1.36.83,1.51,4.35,1.74,5.74.3,1.87-.75,5.61.18,5.57.36,0,3.24-1.25,3.84-2.48a8.09,8.09,0,0,0,1.78-4.24,18.61,18.61,0,0,0-.54-5.47c-.2-1.24-.5-2.54-.66-4.21-.1-1,.29-5.16.29-5.16Z" transform="translate(-290 -335.59)"/><path class="cls-39" d="M716.06,654.39c.59,2.86,2.07,6.45,1.74,9.39-.21,1.75-.45,3.25-3.54,5.22a8.86,8.86,0,0,1-2,1l-.42.13c-.39-10.8,1-28.54,1-28.54-2.3-8.06-1.69-26.18-1.69-26.18s7.74,9,7.74,9.78c0,.43.43,4.85.81,8.54C717.17,640.37,714.57,647.08,716.06,654.39Z" transform="translate(-290 -335.59)"/><path class="cls-28" d="M729.34,642.71l-7.82,36.52a4,4,0,0,1-1,.35c-1.23.29-3.55.4-7-1.24,0,0,.75-28.53,1.7-36.91,0,0-5.22-20.47-3.92-29.68.83-5.94,5.89-8,10-7.29a6.32,6.32,0,0,1,5,3.41S730.87,637.44,729.34,642.71Z" transform="translate(-290 -335.59)"/><path class="cls-28" d="M675.39,628.84l0,0s5.17-10.41,6.51-14.53l-1.2-23.46s-4.63.85-8.75,9.48S659,630.22,660,633.77a26.15,26.15,0,0,1,15.33-4.93Z" transform="translate(-290 -335.59)"/><path class="cls-91" d="M704,623.31v27.93c0,.13,0,.57-.24.72l0,0s-.06,0-.07,0l-.43.28-.06-.11-20.61-12V610.47l-.45-.91.45-.27L702.67,621A2.67,2.67,0,0,1,704,623.31Z" transform="translate(-290 -335.59)"/><path class="cls-32" d="M682.12,609.56l20.11,11.73a2.67,2.67,0,0,1,1.32,2.3v28.15a.7.7,0,0,1-1,.6l-20.38-11.89Z" transform="translate(-290 -335.59)"/><polygon class="cls-91" points="385.78 277.62 392.12 273.97 392.66 274.29 392.42 281.49 385.78 277.62"/><polygon class="cls-92" points="392.66 274.29 386.38 277.97 386.38 282.97 392.66 278.44 392.66 274.29"/><path class="cls-23" d="M682.66,610.73,677.12,614l-.74,29.81,19.29,11.51,6.26-3.75a1.84,1.84,0,0,0,.89-1.58V623.57a1.93,1.93,0,0,0-1-1.66Z" transform="translate(-290 -335.59)"/><path class="cls-91" d="M697.21,627.23v27.93c0,.13,0,.57-.24.72l0,0-.07,0-.43.29-.05-.11-20.62-12V614.39l-.44-.91.44-.27,20.11,11.72A2.67,2.67,0,0,1,697.21,627.23Z" transform="translate(-290 -335.59)"/><path class="cls-32" d="M675.34,613.48l20.11,11.73a2.67,2.67,0,0,1,1.32,2.3v28.15a.7.7,0,0,1-1,.6l-20.38-11.89Z" transform="translate(-290 -335.59)"/><path class="cls-88" d="M704.94,641a1.42,1.42,0,0,0-.81-1.12l-3.21,1.48c.23-.26.91-.78,1.17-1,.7-.7.33-1.4,0-1.47a18.8,18.8,0,0,0-4,1.72,4.39,4.39,0,0,0-1,1.06h0a2.14,2.14,0,0,1-1.6.71l-2.84-1-3,2.3.73,3.46s5.41,3,7,2.61c5.48-1.37,7.06-4.08,7.06-4.08A12.43,12.43,0,0,0,704.94,641Z" transform="translate(-290 -335.59)"/><path class="cls-28" d="M691.16,647.89a3.4,3.4,0,0,1-.33-1c-.25-2,.74-5.45,3.52-5.33a219.15,219.15,0,0,0-19-12.69,24.58,24.58,0,0,0-9.26,1.16,17.4,17.4,0,0,0-6.12,3.77C661.06,637.32,691.16,647.89,691.16,647.89Z" transform="translate(-290 -335.59)"/><path class="cls-39" d="M729.34,642.71l-7.82,36.52a4,4,0,0,1-1,.35c.5-2.62,6.51-34.38,6.79-39.77.29-5.62-6-35.35-6-35.35a6.32,6.32,0,0,1,5,3.41S730.87,637.44,729.34,642.71Z" transform="translate(-290 -335.59)"/><path class="cls-93" d="M655.19,638.26v0l-.19-6.17v-.32l0,0c-.54-11.39-16.61-20.1-36.07-19.52s-35.19,10.36-34.86,21.83l.18,6.22c.14,4.38,2.53,8.33,6.53,11.56l-7.5,4.67a5.55,5.55,0,0,0-3-.58,5.08,5.08,0,0,0-1.51.42,1.49,1.49,0,0,0-.24.14l-.3.18c-.06,0-.08.06-.12.08s-.06.06-.1.08l-37.18,22.84a170,170,0,0,1,16.34,6.38l27.68-17a3.59,3.59,0,0,0,.84-.55,5.07,5.07,0,0,0,1.63-2.21,7.32,7.32,0,0,0,.37-3.1l9.92-6.19a3.1,3.1,0,0,0,.5-.29,2.49,2.49,0,0,0,.38-.42,52.86,52.86,0,0,0,21.81,3.76c19-.58,34.32-9.83,34.87-20.9l0,0Z" transform="translate(-290 -335.59)"/><path class="cls-43" d="M580.09,616.62a13.52,13.52,0,0,0,.51,3.22c3,10.36,18.55,17.91,37.09,17.36s33.66-9,36-19.51c.24-1.06.32-9.87.32-9.87s-9.71-19.32-37.6-18.94c-16.88.24-36.33,21.11-36.33,21.11S580,614.54,580.09,616.62Zm5.88-.18a12.15,12.15,0,0,1,2.42-7.44c4.64-6.54,15.43-11.33,28.13-11.71s23.75,3.78,28.77,10a12.24,12.24,0,0,1,2.86,7.29c.29,10.07-13.39,14-30.56,14.49S586.26,626.51,586,616.44Z" transform="translate(-290 -335.59)"/><path class="cls-94" d="M584.54,610c.3,10.28,15.05,18.19,32.93,17.66s32.14-9.28,31.84-19.56-15-18.18-32.93-17.66S584.24,599.72,584.54,610Z" transform="translate(-290 -335.59)"/><path class="cls-95" d="M598.3,594c32.26.71,42,16.59,44.66,25.57,4.11-3.26,6.48-7.26,6.36-11.52-.31-10.27-15-17.81-32.85-17.29C609.9,591,603.34,592,598.3,594Z" transform="translate(-290 -335.59)"/><path class="cls-96" d="M587.74,610.39c.27,9.1,13.32,16.09,29.15,15.63s28.44-8.22,28.18-17.32c0-.27,0-.52-.06-.79-.88,8.54-13,15.58-28.12,16-15.36.47-28.09-6.11-29.09-14.8A7.43,7.43,0,0,0,587.74,610.39Z" transform="translate(-290 -335.59)"/><path class="cls-43" d="M583.36,603.59l8.39-8.72,24.2-6,24.51,4.56,8.88,8.21,2.31,5.11-3.5,1.23S644,591.34,616,592.17s-31.11,17.68-31.11,17.68l-3.57-1Z" transform="translate(-290 -335.59)"/><path class="cls-97" d="M580.09,610a13.52,13.52,0,0,0,.51,3.23c3,10.36,18.55,17.91,37.09,17.36s33.66-9,36-19.51a13.09,13.09,0,0,0,.32-3.25c-.35-12-17.19-21.19-37.6-20.59S579.74,598,580.09,610Zm5.88-.17a12.15,12.15,0,0,1,2.42-7.44c4.64-6.55,15.43-11.33,28.13-11.71s23.75,3.77,28.77,10a12.24,12.24,0,0,1,2.86,7.29c.29,10.07-13.39,18.64-30.56,19.15S586.26,619.89,586,609.82Z" transform="translate(-290 -335.59)"/><path class="cls-42" d="M580.09,610a13.52,13.52,0,0,0,.51,3.23c3,10.36,18.55,17.91,37.09,17.36s33.66-9,36-19.51a13.09,13.09,0,0,0,.32-3.25c-.35-12-17.19-21.19-37.6-20.59S579.74,598,580.09,610Zm5.88-.17a12.15,12.15,0,0,1,2.42-7.44c4.64-6.55,15.43-11.33,28.13-11.71s23.75,3.77,28.77,10a12.24,12.24,0,0,1,2.86,7.29c.29,10.07-13.39,18.64-30.56,19.15S586.26,619.89,586,609.82Z" transform="translate(-290 -335.59)"/><path class="cls-98" d="M575.66,635.62l.71,1h0l3.16,4.69.82,1.2,13.88-8.66h0a2.84,2.84,0,0,0,.5-.32,3.11,3.11,0,0,0,1-1.33,3.87,3.87,0,0,0,.21-.86h0a4.87,4.87,0,0,0-.46-2.75,4.68,4.68,0,0,0-2.38-2.35,3.18,3.18,0,0,0-1.57-.24,2.57,2.57,0,0,0-.9.25l-.15.07-.19.12-.06,0Z" transform="translate(-290 -335.59)"/><path class="cls-23" d="M575.66,635.62l.71,1h0l16.71-10.38a3.18,3.18,0,0,0-1.57-.24,2.57,2.57,0,0,0-.9.25l-.15.07-.19.12-.06,0Z" transform="translate(-290 -335.59)"/><path class="cls-32" d="M579.54,641.37l.82,1.2,13.88-8.66h0a2.84,2.84,0,0,0,.5-.32,3.11,3.11,0,0,0,1-1.33,3.87,3.87,0,0,0,.21-.86Z" transform="translate(-290 -335.59)"/><path class="cls-43" d="M531.45,659.89l2,3.56,5.19,9.13,42.28-26.13h0a5.11,5.11,0,0,0,2.56-2.87,8.08,8.08,0,0,0-.43-6.29,9,9,0,0,0-1.42-2.14h0a6.62,6.62,0,0,0-5.46-2.37,4.4,4.4,0,0,0-1.57.44,1.58,1.58,0,0,0-.26.13l-.32.21-.12.07a.71.71,0,0,1-.09.07Z" transform="translate(-290 -335.59)"/><path class="cls-42" d="M531.45,659.89l2,3.56,5.09-1.53,43.1-26.75v0h0a6.62,6.62,0,0,0-5.46-2.37,4.4,4.4,0,0,0-1.57.44,1.58,1.58,0,0,0-.26.13l-.32.21-.12.07a.71.71,0,0,1-.09.07Z" transform="translate(-290 -335.59)"/><path class="cls-83" d="M529.31,669c1.75,3.66,5.53,5.49,8.45,4.09h0a4,4,0,0,0,.88-.55,5.21,5.21,0,0,0,1.68-2.32,8.05,8.05,0,0,0-.42-6.28c-1.46-3-4.3-4.81-6.9-4.53a4.49,4.49,0,0,0-1.56.44l-.26.13-.33.21a.5.5,0,0,0-.12.08C528.38,662,527.71,665.7,529.31,669Z" transform="translate(-290 -335.59)"/><path class="cls-89" d="M485,767.66v1.83a3.66,3.66,0,0,1-.16,1v0c0,.08-.06.14-.08.22a1.16,1.16,0,0,0-.1.22,1.08,1.08,0,0,0-.12.22c-.1.12-.2.28-.32.44s-.1.16-.16.24a1.29,1.29,0,0,1-.18.16,3.38,3.38,0,0,0-.26.27,7.88,7.88,0,0,1-2,1.32c-2.79,1.39-5.71,2.4-7.76,3.61-.65.4-2.48,1.62-2.48,1.62a30.53,30.53,0,0,1-2.65,1.9,11,11,0,0,1-6.3,1.69c-2.51-.27-3.7-1.86-3.82-2.84l0-1.53,9.29-3.46Z" transform="translate(-290 -335.59)"/><path class="cls-28" d="M468.76,767.23a68,68,0,0,0,7.49-.92c4.64-.8,7.85-1,8.45.42s.71,2.91-3.44,5.75-7.35,3.13-10.67,5.81a11.63,11.63,0,0,1-7.15,2.62c-2.48.17-4.15-.78-4.69-1.79-1.25-2.34.05-6.78.05-6.78Z" transform="translate(-290 -335.59)"/><path class="cls-89" d="M501.79,778.84v1.69a2.05,2.05,0,0,1-1.1,1.84,27.66,27.66,0,0,1-9.62,2.87l-6.22.75s-2,.16-3.48.34-3.88.12-4.95-.79c-.26-.24-.44-.42-.6-.58a.06.06,0,0,0,0,0l0-.06a1.42,1.42,0,0,1-.2-.28,2.73,2.73,0,0,1-.22-.87v-.08l0-.7v-.32l3.42-.24h0l1.69-.11,1.57-.1,1.45-.1Z" transform="translate(-290 -335.59)"/><path class="cls-28" d="M488.19,774.53a7.42,7.42,0,0,0,4.42,1.91c2.39,0,7.06-.06,8.25.78a2,2,0,0,1,.94,1.5,3,3,0,0,1-.64,1.85c-.89,1.32-6.93,3.29-11.48,3.65a67,67,0,0,0-6.94.66c-2.15.35-4.39.52-5.75-.15-2.34-1.16-2.5-4.7-1.07-7S488.19,774.53,488.19,774.53Z" transform="translate(-290 -335.59)"/><path class="cls-88" d="M463.37,605.33l-.37.86.57,2.85,9.09,4.58.53-.07,1.46-.18,2.28-.3v-3.15a4.13,4.13,0,0,1,2.37-3.83l.1-.05a4.32,4.32,0,0,0,1.54-1l.14-.13c1.75-1.86,3.31-6,2.87-15.16a17.56,17.56,0,0,0-1.18-5.77c-1.32-2.54-4.13-4.22-9.92-2.63-9.66,2.68-13.87,7.06-14.36,10.85S463.37,605.33,463.37,605.33Z" transform="translate(-290 -335.59)"/><path class="cls-87" d="M476.93,613.07v-3.15a4.13,4.13,0,0,1,2.37-3.83c-.48.21-1.94.91-3.9,1.95-.78.42-.75,2.94-.75,5.33Z" transform="translate(-290 -335.59)"/><polygon class="cls-88" points="194.53 289.4 208.36 281.26 207.47 288.48 199.32 297.21 194.53 289.4"/><path class="cls-14" d="M492.43,629.77l17.35,8.92a1,1,0,0,0,1.44-.6l8.42-27a2.11,2.11,0,0,0-1-2.5l-16.11-8.28a1.53,1.53,0,0,0-2.16,1l-8.48,27.14A1.13,1.13,0,0,0,492.43,629.77Z" transform="translate(-290 -335.59)"/><path class="cls-13" d="M493.41,629l15.8,8.17a.76.76,0,0,0,1.07-.45l7.91-25.26c.33-1.2.27-1.72-.94-2.32l-15-7.77a.68.68,0,0,0-1,.43L493,628.12A.76.76,0,0,0,493.41,629Z" transform="translate(-290 -335.59)"/><g class="cls-99"><path class="cls-62" d="M516.43,610.7l-.32,1-13.92-7.18.28-.91s0,0,0-.06Z" transform="translate(-290 -335.59)"/><polygon class="cls-62" points="225.41 278.29 225.12 279.24 211.2 272.08 211.5 271.13 225.41 278.29"/><polygon class="cls-62" points="224.42 281.45 224.12 282.42 210.18 275.27 210.5 274.29 224.42 281.45"/><polygon class="cls-62" points="223.43 284.63 223.13 285.6 209.19 278.43 209.51 277.47 223.43 284.63"/><polygon class="cls-62" points="222.43 287.83 222.13 288.79 208.2 281.61 208.49 280.65 222.43 287.83"/><polygon class="cls-62" points="221.44 290.99 221.14 291.95 207.2 284.81 207.5 283.83 221.44 290.99"/><polygon class="cls-62" points="220.44 294.19 220.15 295.15 206.21 287.97 206.51 287.02 220.44 294.19"/><polygon class="cls-62" points="219.45 297.36 219.15 298.33 205.21 291.15 205.51 290.18 219.45 297.36"/></g><path class="cls-88" d="M506.74,633.55l3.11,2.58.58.49s.72-3,2-4.11a8.23,8.23,0,0,1,2.41-1.08,1.9,1.9,0,0,0,1-.7c.61-.83,1.5-2.65,1-5.81a3.44,3.44,0,0,0-.4-1.31v0c-.38-.66-.86-.64-.86-.64s-2.1,1.49-2.71,1.94-1.14,1.1-1.63.55c-.26-.27,1.27-2.21,1.7-3.1s-.4-1.84-.76-1.5a21.64,21.64,0,0,0-3.38,5.35C508,628.47,506.74,633.55,506.74,633.55Z" transform="translate(-290 -335.59)"/><path class="cls-87" d="M509.13,633.92l.72,2.21.58.49s.72-3,2-4.11a8.23,8.23,0,0,1,2.41-1.08,1.9,1.9,0,0,0,1-.7c.61-.83,1.5-2.65,1-5.81a3.44,3.44,0,0,0-.4-1.31v0s0,.54-.88,1.31a21.13,21.13,0,0,1-2.74,1.84,8.28,8.28,0,0,0-2.11,3.17C510.14,631.32,509.13,633.92,509.13,633.92Z" transform="translate(-290 -335.59)"/><path class="cls-89" d="M454.06,691.72c2.15,11.77,3.7,26.35,3.7,26.35s-3.6,29.22.44,54.67c.18,1.2.6,3.74,2.14,4.73a5.74,5.74,0,0,0,5,0l.23-.11c6-3.3,5.39-7.58,6.26-10.39,0-11.32-1.2-39.17,1.21-45.29L475.18,697l-.79-17.65H452.8v.06l-.11-.06S450.85,684.06,454.06,691.72Z" transform="translate(-290 -335.59)"/><path class="cls-100" d="M460.65,692.2c2,6.68,4.65,24.14,5.2,28.4,0,0-2,33.61-.29,56.73,6-3.3,5.39-7.58,6.26-10.39,0-11.32-1.2-39.17,1.21-45.29L475.18,697l-.79-17.65H459.54A32.79,32.79,0,0,0,460.65,692.2Z" transform="translate(-290 -335.59)"/><path class="cls-89" d="M462,685.14a34.59,34.59,0,0,0,4.66,11.29c.42.62.79,1.26,1.14,1.9.08.3,1.13,4.25,2.44,9.55s2.9,12,4,17.62c-.63,7.1-2.38,32,1,53.5a4,4,0,0,0,2.84,3.21,7.13,7.13,0,0,0,2.37.26,6,6,0,0,0,2-.48c3.54-1.49,6.09-7.14,6.09-7.14s.09-35.77,1.95-45.16a39.87,39.87,0,0,0,.65-5.42c.35-5.75,1-16.24,1.16-20.62a183,183,0,0,0,.14-18.88l-17.69.22Z" transform="translate(-290 -335.59)"/><path class="cls-100" d="M474.77,685c.08,1.06.14,1.76.14,1.76a44.37,44.37,0,0,0,2.43,11.14c2.25,6.68,4.49,22.53,4.73,28.47.24,5.47-2.67,31.52-1.59,56.11a6,6,0,0,0,2-.48c3.54-1.49,6.09-7.14,6.09-7.14s.09-35.77,1.95-45.16a39.87,39.87,0,0,0,.65-5.42c.35-5.75,1-16.24,1.16-20.62a183,183,0,0,0,.14-18.88Z" transform="translate(-290 -335.59)"/><path class="cls-28" d="M450.6,635.25c2.85,8.66,4.45,22.89,2.73,28.83a107,107,0,0,0-2.73,14.36c1.62,4.46,16.71,14.11,25.13,14.86a12.79,12.79,0,0,0,3.09-.12c7.41-1.1,14.36-7.68,14.36-7.68s-1.6-24.39-2.59-40c-.67-10.37-2.2-16.83-3.17-20a22.84,22.84,0,0,0-.8-2.35c-.89-1.17-3.55-3.16-6.94-5.39l-.07,0c-2.27-1.52-4.86-3.12-7.46-4.65h0c-3.46-2.05-7-4-9.75-5.36-.32-.17-.64-.31-.93-.45a22.65,22.65,0,0,0-4.3-1.75c-4-.74-9.28,1.35-10.88,8.54S447.76,626.57,450.6,635.25Z" transform="translate(-290 -335.59)"/><path class="cls-101" d="M479.71,664c.51,6.66-.5,23.27-.89,29.21,7.41-1.1,14.36-7.68,14.36-7.68s-1.6-24.39-2.59-40c-.67-10.37-2.2-16.83-3.17-20-.8-.92-1.32-1.5-1.32-1.5h-9.77s-5.08,1-3.24,12.61S479.1,655.81,479.71,664Z" transform="translate(-290 -335.59)"/><path class="cls-102" d="M524.39,588.87" transform="translate(-290 -335.59)"/><path class="cls-103" d="M461.4,611c1.48,2,6.81,5,9.26,5.49a21.44,21.44,0,0,0,5.59.24,7.21,7.21,0,0,1,3.36,1.07l.07,0h0l-1.45-2.21-1.7-1.08s-2.48-.91-3-1.16a5.92,5.92,0,0,0-1.38-.24h0c-1.47-.18-3.58-.33-3.91-.37a49.13,49.13,0,0,1-4.46-2.79c-.09-.06-.84-1.31-1.38-2.2-.32-.17-.64-.31-.93-.45A2.83,2.83,0,0,0,461.4,611Z" transform="translate(-290 -335.59)"/><path class="cls-104" d="M456,592.5c.83,5,5,12.76,7.16,13.47a12.44,12.44,0,0,0,3.5.67,3.35,3.35,0,0,0,3.45-2.73,15.47,15.47,0,0,1,1.44-4.49c1.48-2.75,3.43-4.19,4.41-3.67s.88,2.27.88,2.27h.63s.06-.57.15-1.32.15-1.7.2-2.42a8.46,8.46,0,0,1,1.7-5.14,20.25,20.25,0,0,0,2.38-4.39,8,8,0,0,0,.59-3.92h0c-.4-3.82-1.95-5.38-3.43-6.46-4.8-3.52-14.85,3-18.56,6.13a12.75,12.75,0,0,0-4.16,5.91v0A12.57,12.57,0,0,0,456,592.5Z" transform="translate(-290 -335.59)"/><path class="cls-23" d="M462.09,607.05l.92-.85a21.38,21.38,0,0,0,13.92,6.87,11.92,11.92,0,0,1,2.79,4.73l-1.27-.82a5.54,5.54,0,0,0-2.19-.85c-.49-.08-1.59-.13-1.59-.13-5-.07-9.9-3.54-12.48-5.67A2.18,2.18,0,0,1,462.09,607.05Z" transform="translate(-290 -335.59)"/><path class="cls-105" d="M510.73,634.45" transform="translate(-290 -335.59)"/><path class="cls-105" d="M520.07,612" transform="translate(-290 -335.59)"/><path class="cls-106" d="M484.54,771.68a2.39,2.39,0,0,1-.31.45A4.6,4.6,0,0,0,484.54,771.68Z" transform="translate(-290 -335.59)"/><path class="cls-106" d="M484.06,772.36a2,2,0,0,0,.17-.23c-.1.13-.2.26-.33.4C484,772.48,484,772.42,484.06,772.36Z" transform="translate(-290 -335.59)"/><path class="cls-88" d="M511,635v0c-.14.4-1.55,5-2.39,7.8s-3.5,12.68-5.67,17.41a1.22,1.22,0,0,1-.1.24c-.12.22-.21.42-.29.6a1.07,1.07,0,0,1-.1.22s0,0,0,0a3.82,3.82,0,0,0-.24.51,5.68,5.68,0,0,1-4.22,3h-.22c-3,0-10.12-12.83-12.22-16.74.87-.54,1.93-1.22,3.06-2.05a24.92,24.92,0,0,0,6.06-6.07c1.06,2.37,3.22,5.87,4.18,8.12,0,0,.12-.3.3-.82a47.06,47.06,0,0,1,4.23-7.95,35.77,35.77,0,0,0,4-8c0,.14.1.54,1.17.68a2,2,0,0,1,1.09.78,11.15,11.15,0,0,1,1,1.41.94.94,0,0,1,.12.18A5.34,5.34,0,0,1,511,635Z" transform="translate(-290 -335.59)"/><path class="cls-87" d="M511,635v0c-.14.4-1.55,5-2.39,7.8s-3.5,12.68-5.67,17.41a1.22,1.22,0,0,1-.1.24c-.12.22-.21.42-.29.6a1.07,1.07,0,0,1-.1.22s0,0,0,0a3.82,3.82,0,0,0-.24.51,5.68,5.68,0,0,1-4.22,3h-.22c-3,0-10.12-12.83-12.22-16.74.87-.54,1.93-1.22,3.06-2.05,2.11,3.87,8.22,15,10.52,15,1.08,0,3.36-7.2,5-11.49s5.46-16.76,5.46-16.76a11.15,11.15,0,0,1,1,1.41.94.94,0,0,1,.12.18A5.34,5.34,0,0,1,511,635Z" transform="translate(-290 -335.59)"/><path class="cls-28" d="M496.06,640.52c-2.58,3.86-7.29,7.1-9.78,8.65-.75.48-1.37.81-1.75,1-.51-.81-8.27-13-9.08-17.26a5,5,0,0,1-.2-.81c-1-5.63.71-7.66.93-7.91a1.1,1.1,0,0,0,.14-.18c3.5-4.2,9.17-4.34,12.45,1.85C490.29,628.73,493.38,634.45,496.06,640.52Z" transform="translate(-290 -335.59)"/><path class="cls-107" d="M456,592.5c.83,5,5,12.76,7.16,13.47a12.44,12.44,0,0,0,3.5.67,3.35,3.35,0,0,0,3.45-2.73,15.47,15.47,0,0,1,1.44-4.49c1.48-2.75,3.43-4.19,4.41-3.67s.88,2.27.88,2.27h.63s.06-.57.15-1.32.15-1.7.2-2.42a8.46,8.46,0,0,1,1.7-5.14,20.25,20.25,0,0,0,2.38-4.39,8,8,0,0,0,.59-3.92,21.92,21.92,0,0,1-15.65,12.88c-11.68,2.45-10.58-6.82-10.5-7.29A12.57,12.57,0,0,0,456,592.5Z" transform="translate(-290 -335.59)"/><path class="cls-8" d="M486.86,680.43a8.7,8.7,0,0,1-8.29,3.69c-.71-.1-1.45-.24-2.2-.41a1,1,0,0,0-.22,0c-8.33-1.93-19.29-7.74-22.15-11.83-3.68-5.25-.06-33.76,5.6-44.64v0a6.28,6.28,0,0,1,6-3.54s11.07,4.16,14.57,8.47S489.83,675,486.86,680.43Z" transform="translate(-290 -335.59)"/><path class="cls-108" d="M486.86,680.43a8.7,8.7,0,0,1-8.29,3.69c-.71-.1-1.45-.24-2.2-.41,2.6.69,4.59-2.31,4.59-4.4s-2.62-33.81-5.6-42.69c-.88-2.61-12.2-7.79-15.76-9.44a6.28,6.28,0,0,1,6-3.54s11.07,4.16,14.57,8.47S489.83,675,486.86,680.43Z" transform="translate(-290 -335.59)"/><path class="cls-108" d="M470.08,625.85s2.32-4.44,5.08-6.22a8.44,8.44,0,0,1,5.46-1.34l4.12,2.93a8.7,8.7,0,0,0-5,1.84c-1.57,1.14-4.13,5.62-4.13,5.62Z" transform="translate(-290 -335.59)"/><path class="cls-108" d="M491.61,659.73a13.29,13.29,0,0,1-5.47,8.29l.78,6.3s2.61-1.54,5.2-7.08Z" transform="translate(-290 -335.59)"/></g></g></svg>